<svg xmlns="http://www.w3.org/2000/svg" width="1228" height="1228" version="1" viewBox="0 0 921 921"><path d="M429.5 1.1c-111.3 7.5-215.3 54.8-294.4 134-45.2 45.1-79.4 97.1-102.9 156.4-42.8 108.1-42.8 229.9 0 338C75 737.4 156.1 824.7 260.2 875c87.8 42.3 183 55.6 280.3 38.9 91.9-15.7 178.2-60.7 245.4-128 45.2-45.1 79.4-97.1 102.9-156.4 42.8-108.1 42.8-229.9 0-338C846 183.6 764.9 96.3 660.8 46 588.4 11.1 509.2-4.3 429.5 1.1zM488.8 22c37.8 2.7 71.3 9 104.5 19.6C795.7 106.3 922.8 305 896.4 515.5 878 661.8 787.1 789.4 654.6 854.6 532 915 389 915 266.4 854.6 98.2 771.8 1.2 591.7 24.6 405.5 43 259.2 133.9 131.6 266.4 66.4c69-34 147.6-49.7 222.4-44.4z"/><path d="M496.2 127c-7.9 28.8-20.1 51.3-35.4 65.5-8.9 8.2-18.2 14.5-36.3 24.5-20.7 11.3-27.1 15.8-35.1 24.2-14.2 15-21 34.4-23 65.7l-.7 11.1h59.8l.1-13.8c.1-15.3 1.8-24.5 6.3-35.3 4.4-10.4 11.1-19 27.4-34.9 22.3-21.7 30.5-33.7 35.5-52 3.9-13.8 5.3-38.1 3.3-54l-.7-5.5-1.2 4.5zM522.7 203.1c-.8 12.1-2.7 19.4-7.8 29.8-3.7 7.5-5.7 9.9-20.3 24.5-17.9 17.8-21.1 22.6-24.6 36.2-1.1 4.3-2.3 11.5-2.7 16.1l-.6 8.3h26.7c14.6 0 26.6-.3 26.6-.8-.1-.4-.7-3.6-1.5-7.2-1.7-7.6-1.9-22.5-.4-29 .5-2.5 3.6-9.8 6.9-16.2 8.2-16.2 9.4-20.7 8.7-33.7-.4-8.6-1.1-12.6-4-21.3-2-5.9-4.2-11.9-5-13.4-1.3-2.5-1.4-2.1-2 6.7zM284.5 344.8c-7 2.4-11.2 5.6-13.6 10.5-2.9 5.6-2.7 11.1 1 24.2 15 54 38.6 210 46.2 305.5.6 8 1.1 26.6 1.1 41.5 0 28.7.3 31.3 5 36.3 5 5.3 3.6 5.2 118.2 5.2 71 0 107.4-.4 109.9-1.1 4-1.1 10-5.8 11.9-9.3.8-1.4 1.2-11.4 1.3-29.6.2-24.1 1.1-39.6 3.1-56.2.7-5.4-2.1-4.5 21.9-7.3 71.5-8.5 118.4-34 140.2-76 8.6-16.6 11.9-32.4 11-52.7-.7-16.3-3-25.7-9.6-39.3-13.5-27.6-36.7-45.6-65.6-51-16.5-3.1-39.9-1.8-60.2 3.4-4.5 1.2-7.3 1.5-7.3.9 0-2.8 9.6-48.4 13.6-64.7 4.7-18.9 4.9-22.2 1.9-28.1-2.4-4.6-8.8-10-14.3-12-5.2-2-8.1-2-158-2-142.3.1-153 .2-157.7 1.8zM654.9 494c18.2 3 31.3 16.7 35.8 37.6 3.2 14.8-.8 33.2-9.8 45.1-9.4 12.5-30.2 23.6-56.9 30.3-11.8 3-37.8 7-45 7-4.1 0-4.1 0-3.5-3.3.3-1.7 1.6-12.4 3-23.7 2.3-19.1 6.7-51.3 9.6-69.2l1.2-7.7 6.6-3c27.3-12.4 42.5-15.7 59-13.1z"/></svg>