<svg xmlns="http://www.w3.org/2000/svg" width="1228" height="1228" version="1" viewBox="0 0 921 921"><path d="M429.5 1.1c-111.3 7.5-215.3 54.8-294.4 134-45.2 45.1-79.4 97.1-102.9 156.4-42.8 108.1-42.8 229.9 0 338C75 737.4 156.1 824.7 260.2 875c87.8 42.3 183 55.6 280.3 38.9 91.9-15.7 178.2-60.7 245.4-128 45.2-45.1 79.4-97.1 102.9-156.4 42.8-108.1 42.8-229.9 0-338C846 183.6 764.9 96.3 660.8 46 588.4 11.1 509.2-4.3 429.5 1.1zM488.8 22c37.8 2.7 71.3 9 104.5 19.6C795.7 106.3 922.8 305 896.4 515.5 878 661.8 787.1 789.4 654.6 854.6 532 915 389 915 266.4 854.6 98.2 771.8 1.2 591.7 24.6 405.5 43 259.2 133.9 131.6 266.4 66.4c69-34 147.6-49.7 222.4-44.4z"/><path d="M491.6 136.7c-13.6 15.8-22.3 29.8-28.2 45.3-2.6 7-2.8 8.5-2.8 22 0 14.3.1 14.6 3.7 24.4 2 5.4 6.2 14.4 9.3 20 18 32.3 21.7 42.6 21.7 60.1 0 9.1-.5 12.7-2.8 20.5-1.5 5.2-4.2 12.3-5.8 15.7-1.7 3.4-2.7 6.6-2.3 7 1.1 1.1 13.3-12.2 19.1-21 8.9-13.2 9.5-14.2 12.1-21.7 3.8-10.6 3.8-25.2 0-35.9-2.5-7.2-11.9-25.8-15.8-31.4-3.3-4.6-8.9-18.6-11-27.2-1.1-4.4-2.4-9.4-2.9-11.1-1.3-4.4-1-20.7.6-29.4 2.1-11.5 5.8-23.7 9.9-32.5 7.9-16.8 6.7-18-4.8-4.8zM413.2 205.9c-10.7 15.2-20.2 39.3-20.2 50.9 0 3 3.1 16.1 5 20.7 1.5 4 9.4 16.7 14.7 23.7 6.7 8.8 13 19.5 16 27.2 2.6 6.6 2.8 8.1 2.7 20.6-.1 11.2-.4 14.5-2.2 19.4-2.5 6.9-2.6 7.6-.9 7.6 1.9 0 12.8-17.6 16.7-27 3.2-7.7 3.5-9.4 3.5-18-.1-12.6-2-17.3-15-36.4-18-26.6-22.2-38.1-21.2-58.1.3-6 1-12.6 1.6-14.5 2.6-9.3 5.2-21.1 4.9-22.2-.3-.7-2.8 2.1-5.6 6.1zM432.5 397.9c-1.1.4-11 1.1-22 1.4-22.7.8-43.9 2.3-50.5 3.7-2.5.5-11 1.8-19 2.9-46.2 6.4-76.4 17.5-86.5 32l-3 4.3.1 16.8c.2 24.8 1.9 37.7 8 62 8.4 33.4 20.2 58.5 41.2 87 6.5 8.8 28.3 31.3 39.7 40.9 4.4 3.8 12.5 9.8 18 13.4 5.5 3.6 11.2 8.1 12.7 10.1 3.6 4.5 9.6 8.8 18.3 13 8.8 4.3 16.3 6.4 29 8.2 5.5.8 12.5 1.9 15.6 2.4 7.1 1.3 38.6 1.3 44.1.1 2.4-.6 8.6-1.5 13.8-2 10.4-1.1 25.8-5.5 33.8-9.5 2.8-1.4 8.1-5.6 11.9-9.3 3.7-3.7 8.6-7.8 10.8-9.2 14.8-9.4 24.6-17.2 39-31.2 8.8-8.6 17.1-15.9 18.5-16.3 57.3-15.8 104.6-40.7 122.4-64.6 11.2-15.1 13.8-21.5 13.9-34.5.2-13.9-2.3-19.7-13.2-30.6-9.5-9.4-15.3-12.8-27.1-15.8-11.6-2.9-17.2-3.3-28.6-2-9.2.9-10.8.9-12.1-.4-1.3-1.2-1.3-2.1-.4-4.8 1.6-4.6 1.4-16.8-.4-22-6.1-17.8-36.8-30.8-89.5-38-8-1.1-16.5-2.4-19-2.9-14.6-3-114.2-7.2-119.5-5.1zm60.5 12.2c9.1.5 19.2 1.1 22.5 1.4 3.3.3 14.3 1.2 24.5 2s20.5 2 23 2.5 9 1.7 14.5 2.5c30.9 4.8 59.3 14.5 67.7 23.2 5.3 5.4 5.7 8.7 1.9 14-6.9 9.5-29.7 18.2-64.4 24.5-18.9 3.4-23.6 4-64.2 8-14.4 1.4-110.6 1.4-125 0-36.5-3.5-46.4-4.8-64.5-8.1-24.9-4.5-47.3-11.5-55.9-17.6-5.8-4-10-8.4-10.7-11.1-2.1-8.4 10.2-17.7 32.1-24 9.7-2.8 30.1-7.5 39.5-9 5.2-.9 10.6-1.8 12-2 4-.7 28.3-3.2 43-4.5 31.2-2.6 74.5-3.4 104-1.8zm207.4 83.6c6 2.2 13.9 9.1 16.9 14.7 1.6 3.1 2.2 5.9 2.2 11.6 0 10.9-3.8 18.6-14.8 29.5-9.7 9.6-21.1 16.8-35.9 22.6-15.3 5.9-38.8 11.6-38.8 9.4 0-.4 2.5-5.9 5.6-12.2 6.5-13.4 12.4-28.9 16-42.3 2.7-9.7 3.3-10.7 13.4-22.1 9.8-11.2 23.4-15.5 35.4-11.2z"/><path d="M245 553.1c-20.2 6.6-29.9 10.8-47.5 20.4-14.5 8-26.7 19.7-32 30.6-3.2 6.7-3.5 8.1-3.5 16.4 0 10.9 1.5 16.1 6.8 24.1 6.3 9.5 21.1 21.7 35 28.8 1.8.9 6.9 4.1 11.5 7 7.8 5.1 17.7 10.8 34.7 20 9.4 5 48.8 23.6 50.1 23.6.5 0 8.5 3.5 17.7 7.9 21.5 10.1 47.1 19.1 64.1 22.6 4 .8 7.7 1.7 8.1 2 1.1.7 29.4 4.5 42 5.7 11 1 52.1.3 62.5-1.1 22.7-3.1 38.2-6.5 58.5-12.8 16.6-5.2 30.7-10.6 41.8-16.2 4.2-2.1 13.1-6.2 19.7-9.1 28.6-12.5 64.8-31.4 82.5-43 4.7-3.1 11.2-7.1 14.5-9 7-3.9 18.6-12 23.4-16.4 4.5-4.2 10.6-13.3 13.1-19.6 1.5-3.8 2-7.4 2-14.3 0-8.5-.3-9.8-3.5-16.6-2.8-5.8-5.5-9.3-12.6-16.2-8.1-8-9.4-8.9-12.8-8.9-3.7 0-8.1 3.1-8.1 5.7 0 .6 2.5 3 5.5 5.3 23.2 17.9 26.6 35.7 10.3 53.5-12.6 13.7-32.3 24.2-66.3 35.3-52.4 17.1-125 26.2-207.7 26.2-35 0-89.3-2.8-99.8-5-2.5-.6-11.7-1.9-20.5-2.9-32-3.9-70.4-12.5-92.5-20.7-37.6-13.9-57.6-26.9-65.7-42.4-3.9-7.6-4-18.1-.3-25.4 8.4-16.6 36-33.3 74.3-45.1 7-2.2 8.7-3.1 8.7-4.7 0-2.5-2.6-7.4-4.2-8-.7-.3-5.1.7-9.8 2.3z"/></svg>